<svg width="100" height="100" viewBox="0 0 100 100" fill="none" xmlns="http://www.w3.org/2000/svg">
<path d="M93.86 34.1944L87.02 11.3945C86.0278 8.0749 84.1192 5.18722 81.5656 3.14171C79.0119 1.0962 75.9431 -0.00310114 72.795 6.57097e-06H27.205C24.0569 -0.00310114 20.9881 1.0962 18.4344 3.14171C15.8808 5.18722 13.9722 8.0749 12.98 11.3945L6.14 34.1944C4.32111 35.0401 2.7678 36.4643 1.67533 38.288C0.582866 40.1118 -2.4045e-06 42.2537 0 44.4444V72.2222C0 76.3222 2.02 79.8667 5 81.7944V94.4444C5 95.9179 5.52678 97.3309 6.46447 98.3728C7.40215 99.4147 8.67392 100 10 100H15C16.3261 100 17.5979 99.4147 18.5355 98.3728C19.4732 97.3309 20 95.9179 20 94.4444V83.3333H80V94.4444C80 95.9179 80.5268 97.3309 81.4645 98.3728C82.4021 99.4147 83.6739 100 85 100H90C91.3261 100 92.5979 99.4147 93.5355 98.3728C94.4732 97.3309 95 95.9179 95 94.4444V81.7944C96.517 80.8278 97.7778 79.4341 98.6556 77.7536C99.5334 76.0731 99.9971 74.1652 100 72.2222V44.4444C100 42.2537 99.4171 40.1118 98.3247 38.288C97.2322 36.4643 95.6789 35.0401 93.86 34.1944ZM27.205 11.1111H72.79C74.945 11.1111 76.855 12.6333 77.535 14.9111L83.065 33.3333H16.935L22.46 14.9111C22.7917 13.8044 23.4286 12.8418 24.2802 12.1598C25.1319 11.4777 26.1552 11.1108 27.205 11.1111ZM17.5 66.6667C16.5148 66.6663 15.5392 66.4503 14.6291 66.0311C13.719 65.6118 12.8921 64.9974 12.1957 64.2231C11.4992 63.4488 10.9469 62.5296 10.5701 61.5181C10.1934 60.5066 9.99967 59.4225 10 58.3278C10.0003 57.2331 10.1947 56.1491 10.572 55.1379C10.9494 54.1267 11.5023 53.2079 12.1992 52.4341C12.8961 51.6602 13.7234 51.0465 14.6337 50.6279C15.5441 50.2093 16.5198 49.9941 17.505 49.9944C19.4948 49.9952 21.4028 50.8742 22.8093 52.438C24.2159 54.0018 25.0057 56.1225 25.005 58.3333C25.0043 60.5442 24.2133 62.6642 22.8058 64.227C21.3983 65.7898 19.4898 66.6674 17.5 66.6667ZM82.5 66.6667C81.5148 66.6663 80.5392 66.4503 79.6291 66.0311C78.719 65.6118 77.8921 64.9974 77.1957 64.2231C76.4992 63.4488 75.9469 62.5296 75.5701 61.5181C75.1934 60.5066 74.9997 59.4225 75 58.3278C75.0003 57.2331 75.1947 56.1491 75.5721 55.1379C75.9494 54.1267 76.5023 53.2079 77.1992 52.4341C77.8961 51.6602 78.7234 51.0465 79.6337 50.6279C80.5441 50.2093 81.5198 49.9941 82.505 49.9944C84.4948 49.9952 86.4028 50.8742 87.8093 52.438C89.2159 54.0018 90.0057 56.1225 90.005 58.3333C90.0043 60.5442 89.2133 62.6642 87.8058 64.227C86.3983 65.7898 84.4898 66.6674 82.5 66.6667Z" fill="black"/>
<path d="M37.9176 69.8864V65.0426L50.0625 45.9091H54.2386V52.6136H51.767L44.1108 64.7301V64.9574H61.3693V69.8864H37.9176ZM51.8807 75V68.4091L51.9943 66.2642V45.9091H57.7614V75H51.8807Z" fill="#F5F5F5"/>
</svg>
