<svg width="100" height="100" viewBox="0 0 100 100" fill="none" xmlns="http://www.w3.org/2000/svg">
<path d="M33.482 36.8426L46.3701 26.3162H62.2449L57.2806 10.5265H45.4609V0H63.6451L68.6094 15.7897H86.3754V31.5794H73.5737L80.1927 52.6428C85.2151 52.8277 90.0029 55.1461 93.6434 59.156C97.2839 63.1659 99.5224 68.5868 99.9319 74.385C100.341 80.1832 98.8935 85.9531 95.8641 90.5945C92.8346 95.2359 88.4357 98.4241 83.5061 99.5512C78.5764 100.678 73.4609 99.6654 69.135 96.7057C64.809 93.746 61.5753 89.0465 60.0503 83.5033C58.5253 77.9602 58.8158 71.9611 60.8664 66.65C62.917 61.3389 66.5842 57.0873 71.1688 54.706L65.5499 36.8426H61.2448L54.0529 67.7378L40.7557 73.3642C41.2356 77.7971 40.6228 82.2968 38.988 86.3436C37.3533 90.3905 34.7632 93.8195 31.5169 96.2348C28.2706 98.6501 24.5004 99.9531 20.6417 99.9934C16.783 100.034 12.9932 98.8096 9.7098 96.4625C6.42639 94.1154 3.78333 90.7409 2.08579 86.7289C0.388252 82.7168 -0.294537 78.2306 0.116264 73.7884C0.527065 69.3462 2.0147 65.1291 4.40741 61.624C6.80011 58.1189 10.0003 55.4688 13.6385 53.9797V47.3691H4.54635V36.8426H33.482ZM20.4576 89.4749C23.4718 89.4749 26.3625 88.0886 28.4939 85.621C30.6253 83.1534 31.8227 79.8066 31.8227 76.3168C31.8227 72.8271 30.6253 69.4803 28.4939 67.0127C26.3625 64.5451 23.4718 63.1588 20.4576 63.1588C17.4433 63.1588 14.5526 64.5451 12.4212 67.0127C10.2898 69.4803 9.09241 72.8271 9.09241 76.3168C9.09241 79.8066 10.2898 83.1534 12.4212 85.621C14.5526 88.0886 17.4433 89.4749 20.4576 89.4749ZM79.5563 89.4749C82.5705 89.4749 85.4613 88.0886 87.5927 85.621C89.7241 83.1534 90.9214 79.8066 90.9214 76.3168C90.9214 72.8271 89.7241 69.4803 87.5927 67.0127C85.4613 64.5451 82.5705 63.1588 79.5563 63.1588C76.5421 63.1588 73.6513 64.5451 71.5199 67.0127C69.3886 69.4803 68.1912 72.8271 68.1912 76.3168C68.1912 79.8066 69.3886 83.1534 71.5199 85.621C73.6513 88.0886 76.5421 89.4749 79.5563 89.4749Z" fill="black"/>
</svg>
